<?xml version="1.0" encoding="utf-8"?>
<!-- Generator: Adobe Illustrator 16.0.0, SVG Export Plug-In . SVG Version: 6.00 Build 0)  -->
<!DOCTYPE svg PUBLIC "-//W3C//DTD SVG 1.1//EN" "http://www.w3.org/Graphics/SVG/1.1/DTD/svg11.dtd">
<svg version="1.1" id="Layer_1" xmlns="http://www.w3.org/2000/svg" xmlns:xlink="http://www.w3.org/1999/xlink" x="0px" y="0px"
	 width="230.374px" height="64.72px" viewBox="0 0 230.374 64.72" enable-background="new 0 0 230.374 64.72" xml:space="preserve">
<g id="XMLID_1_">
	<g>
		<g>
			<path fill="#FFFFFF" d="M218.152,19.75c0.616,4.938-1.787,7.781-3.482,9.509c-14.37,12.641-50.139,11.488-62.639-0.528
				c-2.05-2.033-4.586-5.549-3.934-10.047c0.899-6.196,7.094-10.176,11.886-12.389c12.456-5.845,29.588-5.891,42.601-0.945
				C208.714,7.653,217.219,12.284,218.152,19.75z M211.171,18.393c0.307-7.223-7.796-10.865-11.842-12.413
				c-5.666-2.181-13.857-3.233-19.555-2.868c-5.493,0.355-9.959,1.088-15.019,3.145c-3.986,1.611-9.293,4.206-10.245,9.555
				c-1.009,5.677,3.784,8.94,7.122,10.83c11.336,6.323,32.77,6.84,43.838-0.136C207.837,24.991,211.011,22.142,211.171,18.393z"/>
			<path fill="#FFFFFF" d="M205.296,15.614c0.021,4.883-5.414,7.472-9.122,8.744c-9.278,3.155-20.565,2.427-28.603-0.989
				c-3.432-1.468-8.244-3.732-7.543-9.013c0.566-4.237,4.499-6.175,7.578-7.519c3.777-1.66,7.384-2.176,11.41-2.511
				c7.229-0.604,15.814,0.958,20.764,3.868C202.063,9.53,205.278,12.345,205.296,15.614z M199.615,14.247
				c0.225-4.078-4.85-6.197-7.819-7.198c-3.844-1.306-9.137-1.683-13.043-1.308c-5.506,0.523-12.546,2.36-13.443,7.566
				c-0.587,3.373,3.607,5.566,6.039,6.605c3.573,1.518,6.439,1.865,10.538,1.934C187.278,21.94,199.259,20.729,199.615,14.247z"/>
			<path fill="#FFFFFF" d="M188.417,8c1.859,0.599,5.574,2.451,5.374,4.881c-0.326,4.044-8.017,5.247-11.846,5.134
				c-3.706-0.105-11.71-1.353-11.375-5.757c0.218-2.698,3.063-3.695,4.408-4.151c2.078-0.706,3.255-0.765,5.557-0.968
				C181.586,7.046,185.583,7.098,188.417,8z M175.423,11.816c-0.194,4.202,13.425,4.49,13.253-0.104
				c-0.083-2.31-4.155-2.875-5.504-2.981c-1.071-0.084-2.243-0.15-3.321,0.001C178.059,8.981,175.534,9.48,175.423,11.816z"/>
		</g>
	</g>
</g>
<g>
	<path fill="#FFFFFF" d="M5.859,21.102c-0.333,0-0.682,0.003-1.046,0.01c-0.365,0.007-0.729,0.019-1.094,0.039
		c-0.365,0.019-0.717,0.042-1.056,0.067c-0.339,0.026-0.643,0.058-0.912,0.096c0.064-0.23,0.096-0.435,0.096-0.614
		c0-0.141-0.032-0.339-0.096-0.595c0.845,0.026,1.67,0.048,2.477,0.067c0.806,0.02,1.632,0.029,2.477,0.029
		c0.845,0,1.67-0.009,2.477-0.029c0.806-0.019,1.632-0.041,2.477-0.067c-0.064,0.256-0.096,0.46-0.096,0.614
		c0,0.167,0.032,0.365,0.096,0.595c-0.269-0.039-0.573-0.07-0.912-0.096c-0.339-0.025-0.691-0.048-1.056-0.067
		c-0.365-0.02-0.729-0.032-1.094-0.039c-0.365-0.006-0.714-0.01-1.046-0.01c-0.039,1.319-0.058,2.644-0.058,3.975v3.302
		c0,0.845,0.016,1.677,0.048,2.496c0.032,0.819,0.067,1.626,0.105,2.419c-0.294-0.026-0.608-0.039-0.941-0.039
		s-0.646,0.013-0.94,0.039c0.038-0.793,0.073-1.6,0.105-2.419c0.032-0.819,0.048-1.651,0.048-2.496v-3.302
		C5.917,23.745,5.897,22.42,5.859,21.102z"/>
	<path fill="#FFFFFF" d="M13.332,22.926c-0.006-0.512-0.016-1.018-0.029-1.517c-0.013-0.5-0.029-0.976-0.048-1.431
		c-0.019-0.454-0.042-0.841-0.067-1.162c0.358,0.064,0.646,0.096,0.864,0.096c0.217,0,0.505-0.032,0.864-0.096
		c-0.025,0.32-0.048,0.704-0.067,1.152c-0.02,0.448-0.036,0.919-0.048,1.412s-0.022,0.989-0.029,1.488s-0.009,0.96-0.009,1.382
		v1.459H14.8c0.36-0.55,0.79-0.976,1.291-1.277s1.098-0.451,1.792-0.451c0.359,0,0.722,0.051,1.088,0.153
		c0.366,0.103,0.697,0.278,0.992,0.528c0.295,0.25,0.536,0.589,0.723,1.018c0.186,0.429,0.279,0.976,0.279,1.642
		c0,0.55-0.013,1.117-0.039,1.699c-0.026,0.583-0.039,1.2-0.039,1.853v1.248c0,0.205,0.003,0.407,0.01,0.605
		s0.016,0.387,0.029,0.566c-0.259-0.026-0.531-0.039-0.816-0.039c-0.272,0-0.538,0.013-0.797,0.039
		c0.025-0.666,0.054-1.351,0.086-2.055c0.032-0.704,0.048-1.427,0.048-2.169v-1.171c0-0.96-0.186-1.686-0.557-2.179
		c-0.372-0.493-0.883-0.739-1.536-0.739c-0.896,0-1.552,0.275-1.968,0.826c-0.416,0.551-0.624,1.325-0.624,2.323
		c0,0.358,0.003,0.775,0.009,1.248c0.006,0.474,0.016,0.95,0.029,1.43c0.013,0.48,0.029,0.944,0.048,1.392
		c0.019,0.448,0.042,0.813,0.067,1.095c-0.294-0.026-0.583-0.039-0.864-0.039c-0.282,0-0.57,0.013-0.864,0.039
		c0.026-0.294,0.048-0.666,0.067-1.114c0.019-0.448,0.035-0.921,0.048-1.421c0.013-0.499,0.022-1.004,0.029-1.517
		c0.006-0.512,0.01-0.986,0.01-1.421v-3.475C13.341,23.912,13.338,23.438,13.332,22.926z"/>
	<path fill="#FFFFFF" d="M23.662,25.326c0.749-0.896,1.84-1.344,3.273-1.344c0.678,0,1.264,0.105,1.757,0.316
		c0.493,0.211,0.905,0.493,1.238,0.845c0.333,0.352,0.579,0.765,0.739,1.238c0.16,0.474,0.24,0.979,0.24,1.517
		c0,0.128-0.003,0.253-0.009,0.375c-0.007,0.122-0.016,0.247-0.029,0.375c-0.691-0.013-1.376-0.025-2.055-0.039
		c-0.678-0.013-1.363-0.019-2.054-0.019c-0.422,0-0.842,0.006-1.258,0.019c-0.416,0.013-0.835,0.026-1.257,0.039
		c-0.013,0.064-0.019,0.16-0.019,0.288v0.25c0,0.499,0.073,0.966,0.221,1.401c0.147,0.436,0.361,0.81,0.643,1.124
		c0.281,0.313,0.627,0.563,1.037,0.749s0.883,0.278,1.421,0.278c0.256,0,0.519-0.035,0.787-0.105
		c0.269-0.07,0.531-0.166,0.788-0.288c0.256-0.122,0.496-0.266,0.72-0.432c0.224-0.166,0.419-0.345,0.585-0.538l0.096,0.058
		l-0.115,0.941c-0.384,0.307-0.861,0.57-1.43,0.787c-0.57,0.218-1.162,0.327-1.776,0.327c-0.691,0-1.322-0.105-1.891-0.317
		c-0.57-0.211-1.063-0.519-1.479-0.921c-0.416-0.403-0.736-0.88-0.96-1.431c-0.224-0.55-0.336-1.146-0.336-1.786
		C22.538,27.457,22.913,26.222,23.662,25.326z M25.773,24.922c-0.327,0.218-0.595,0.49-0.807,0.816
		c-0.211,0.326-0.371,0.685-0.48,1.075s-0.176,0.758-0.201,1.104c0.396,0.013,0.809,0.025,1.238,0.038
		c0.429,0.013,0.848,0.02,1.257,0.02c0.422,0,0.851-0.006,1.287-0.02c0.435-0.013,0.857-0.025,1.267-0.038
		c0-0.346-0.029-0.71-0.086-1.095c-0.058-0.384-0.173-0.742-0.346-1.075c-0.173-0.333-0.413-0.608-0.72-0.826
		c-0.307-0.217-0.71-0.326-1.209-0.326C26.5,24.596,26.1,24.705,25.773,24.922z"/>
	<path fill="#FFFFFF" stroke="#FFFFFF" stroke-width="0.3" stroke-miterlimit="10" d="M51.132,19.598
		c-0.342-0.273-0.722-0.513-1.14-0.718s-0.882-0.372-1.391-0.501c-0.51-0.129-1.053-0.194-1.63-0.194
		c-0.942,0-1.82,0.145-2.633,0.433c-0.813,0.289-1.52,0.733-2.121,1.334s-1.071,1.36-1.414,2.28c-0.342,0.92-0.513,2.01-0.513,3.272
		c0,1.11,0.152,2.113,0.456,3.01c0.304,0.897,0.748,1.653,1.333,2.269c0.585,0.615,1.3,1.091,2.143,1.425
		c0.844,0.334,1.797,0.501,2.862,0.501c0.319,0,0.653-0.015,1.003-0.045c0.35-0.03,0.688-0.076,1.015-0.137
		c0.327-0.061,0.63-0.137,0.912-0.228c0.281-0.091,0.521-0.197,0.718-0.319c0.015-0.456,0.026-0.912,0.034-1.368
		c0.007-0.456,0.011-0.919,0.011-1.391c0-0.532-0.011-1.063-0.034-1.596c-0.023-0.532-0.049-1.041-0.08-1.527
		c0.379,0.076,0.745,0.114,1.094,0.114c0.167,0,0.334-0.007,0.501-0.022c0.167-0.015,0.327-0.046,0.479-0.091
		c-0.031,0.35-0.054,0.9-0.068,1.653c-0.016,0.752-0.023,1.744-0.023,2.976c0,0.304,0.003,0.612,0.011,0.923s0.012,0.62,0.012,0.923
		c-0.319,0.122-0.718,0.248-1.197,0.376c-0.479,0.129-0.988,0.236-1.527,0.319c-0.54,0.083-1.08,0.16-1.619,0.228
		s-1.03,0.103-1.47,0.103c-1.353,0-2.573-0.163-3.66-0.49c-1.087-0.327-2.01-0.832-2.77-1.516c-0.76-0.684-1.345-1.535-1.756-2.553
		c-0.41-1.019-0.615-2.196-0.615-3.534c0-1.292,0.212-2.443,0.638-3.454c0.425-1.011,1.026-1.866,1.801-2.565
		s1.713-1.231,2.816-1.596c1.102-0.365,2.322-0.547,3.659-0.547c0.775,0,1.463,0.042,2.063,0.125c0.6,0.084,1.132,0.194,1.596,0.331
		c0.463,0.137,0.87,0.282,1.22,0.433c0.35,0.152,0.661,0.296,0.935,0.434c-0.122,0.213-0.232,0.486-0.331,0.821
		c-0.099,0.334-0.164,0.646-0.194,0.935h-0.273C51.759,20.146,51.474,19.872,51.132,19.598z"/>
	<path fill="#FFFFFF" stroke="#FFFFFF" stroke-width="0.3" stroke-miterlimit="10" d="M60.416,24.09
		c-0.22-0.076-0.444-0.114-0.672-0.114c-0.365,0-0.692,0.084-0.98,0.251c-0.289,0.167-0.532,0.392-0.729,0.673
		c-0.198,0.281-0.35,0.615-0.456,1.003c-0.106,0.388-0.16,0.802-0.16,1.243v2.508c0,1.019,0.003,1.798,0.011,2.337
		c0.008,0.54,0.034,0.977,0.08,1.311c-0.304-0.03-0.608-0.045-0.912-0.045c-0.334,0-0.654,0.015-0.958,0.045
		c0.045-0.517,0.072-1.22,0.08-2.109s0.012-1.979,0.012-3.271v-0.73c0-0.593-0.004-1.277-0.012-2.052
		c-0.008-0.775-0.034-1.665-0.08-2.667c0.167,0.03,0.327,0.057,0.479,0.08s0.312,0.034,0.479,0.034c0.137,0,0.281-0.011,0.433-0.034
		s0.312-0.049,0.479-0.08c-0.061,0.547-0.095,0.98-0.103,1.299c-0.008,0.319-0.012,0.624-0.012,0.912l0.046,0.023
		c0.896-1.642,1.9-2.462,3.009-2.462c0.137,0,0.254,0.008,0.354,0.022c0.099,0.016,0.224,0.054,0.376,0.114
		c-0.077,0.182-0.122,0.46-0.137,0.832c-0.015,0.373-0.022,0.711-0.022,1.015l-0.16,0.114C60.785,24.25,60.636,24.166,60.416,24.09z
		"/>
	<path fill="#FFFFFF" stroke="#FFFFFF" stroke-width="0.3" stroke-miterlimit="10" d="M63.255,23.839
		c0.889-1.063,2.185-1.596,3.887-1.596c0.806,0,1.501,0.125,2.086,0.376c0.585,0.251,1.075,0.585,1.471,1.003
		c0.395,0.418,0.688,0.908,0.877,1.47c0.19,0.563,0.285,1.163,0.285,1.801c0,0.152-0.004,0.3-0.011,0.445
		c-0.008,0.145-0.02,0.293-0.034,0.444c-0.821-0.015-1.634-0.03-2.44-0.045s-1.619-0.023-2.439-0.023c-0.501,0-1,0.008-1.493,0.023
		c-0.494,0.015-0.992,0.031-1.494,0.045c-0.015,0.076-0.023,0.19-0.023,0.342v0.296c0,0.593,0.087,1.148,0.262,1.664
		c0.175,0.517,0.43,0.962,0.764,1.334c0.334,0.373,0.745,0.669,1.231,0.889c0.486,0.221,1.049,0.331,1.688,0.331
		c0.304,0,0.615-0.042,0.935-0.125c0.319-0.083,0.63-0.197,0.935-0.342c0.304-0.144,0.589-0.315,0.855-0.513
		c0.266-0.197,0.498-0.41,0.695-0.638l0.114,0.068l-0.137,1.117c-0.456,0.365-1.022,0.677-1.699,0.935
		c-0.676,0.258-1.379,0.387-2.109,0.387c-0.821,0-1.57-0.125-2.246-0.376c-0.677-0.251-1.262-0.616-1.756-1.094
		c-0.494-0.479-0.874-1.045-1.14-1.699c-0.266-0.653-0.399-1.36-0.399-2.121C61.921,26.37,62.366,24.903,63.255,23.839z
		 M65.763,23.36c-0.387,0.258-0.707,0.581-0.958,0.969c-0.25,0.388-0.441,0.813-0.57,1.277c-0.129,0.464-0.209,0.9-0.24,1.311
		c0.471,0.015,0.961,0.031,1.471,0.045c0.509,0.016,1.007,0.023,1.494,0.023c0.501,0,1.011-0.007,1.527-0.023
		c0.517-0.015,1.018-0.03,1.505-0.045c0-0.411-0.034-0.844-0.103-1.3s-0.205-0.881-0.411-1.277c-0.205-0.395-0.49-0.722-0.855-0.98
		c-0.365-0.258-0.843-0.388-1.436-0.388C66.625,22.973,66.15,23.102,65.763,23.36z"/>
	<path fill="#FFFFFF" stroke="#FFFFFF" stroke-width="0.3" stroke-miterlimit="10" d="M74.58,23.839
		c0.889-1.063,2.185-1.596,3.887-1.596c0.806,0,1.501,0.125,2.086,0.376c0.585,0.251,1.075,0.585,1.471,1.003
		c0.395,0.418,0.688,0.908,0.877,1.47c0.19,0.563,0.285,1.163,0.285,1.801c0,0.152-0.004,0.3-0.011,0.445
		c-0.008,0.145-0.02,0.293-0.034,0.444c-0.821-0.015-1.634-0.03-2.44-0.045s-1.619-0.023-2.439-0.023c-0.501,0-1,0.008-1.493,0.023
		c-0.494,0.015-0.992,0.031-1.494,0.045c-0.015,0.076-0.023,0.19-0.023,0.342v0.296c0,0.593,0.087,1.148,0.262,1.664
		c0.175,0.517,0.43,0.962,0.764,1.334c0.334,0.373,0.745,0.669,1.231,0.889c0.486,0.221,1.049,0.331,1.688,0.331
		c0.304,0,0.615-0.042,0.935-0.125c0.319-0.083,0.63-0.197,0.935-0.342c0.304-0.144,0.589-0.315,0.855-0.513
		c0.266-0.197,0.498-0.41,0.695-0.638l0.114,0.068l-0.137,1.117c-0.456,0.365-1.022,0.677-1.699,0.935
		c-0.676,0.258-1.379,0.387-2.109,0.387c-0.821,0-1.57-0.125-2.246-0.376c-0.677-0.251-1.262-0.616-1.756-1.094
		c-0.494-0.479-0.874-1.045-1.14-1.699c-0.266-0.653-0.399-1.36-0.399-2.121C73.246,26.37,73.69,24.903,74.58,23.839z M77.087,23.36
		c-0.387,0.258-0.707,0.581-0.958,0.969c-0.25,0.388-0.441,0.813-0.57,1.277c-0.129,0.464-0.209,0.9-0.24,1.311
		c0.471,0.015,0.961,0.031,1.471,0.045c0.509,0.016,1.007,0.023,1.494,0.023c0.501,0,1.011-0.007,1.527-0.023
		c0.517-0.015,1.018-0.03,1.505-0.045c0-0.411-0.034-0.844-0.103-1.3s-0.205-0.881-0.411-1.277c-0.205-0.395-0.49-0.722-0.855-0.98
		c-0.365-0.258-0.843-0.388-1.436-0.388C77.95,22.973,77.475,23.102,77.087,23.36z"/>
	<path fill="#FFFFFF" stroke="#FFFFFF" stroke-width="0.3" stroke-miterlimit="10" d="M91.951,24.306
		c-0.441-0.585-1.049-0.877-1.824-0.877c-1.064,0-1.843,0.327-2.337,0.98c-0.494,0.653-0.741,1.573-0.741,2.759v1.938
		c0,0.684,0.011,1.402,0.034,2.154c0.022,0.752,0.072,1.433,0.148,2.041c-0.35-0.03-0.692-0.045-1.026-0.045
		c-0.334,0-0.676,0.015-1.026,0.045c0.076-0.607,0.125-1.288,0.148-2.041c0.023-0.752,0.034-1.471,0.034-2.154v-2.372
		c0-0.684-0.011-1.402-0.034-2.154c-0.022-0.752-0.072-1.456-0.148-2.109c0.425,0.076,0.767,0.114,1.026,0.114
		c0.122,0,0.254-0.011,0.399-0.034s0.315-0.049,0.513-0.08c-0.046,0.608-0.068,1.216-0.068,1.824h0.045
		c0.427-0.653,0.938-1.159,1.532-1.516c0.595-0.357,1.304-0.536,2.127-0.536c0.427,0,0.857,0.061,1.292,0.182
		c0.435,0.122,0.827,0.331,1.178,0.627s0.637,0.699,0.858,1.208c0.221,0.509,0.332,1.159,0.332,1.949
		c0,0.654-0.015,1.327-0.045,2.018c-0.031,0.692-0.046,1.425-0.046,2.2v1.482c0,0.243,0.004,0.483,0.012,0.718
		c0.007,0.236,0.019,0.46,0.034,0.672c-0.308-0.03-0.631-0.045-0.969-0.045c-0.323,0-0.639,0.015-0.946,0.045
		c0.03-0.79,0.064-1.604,0.103-2.439s0.057-1.695,0.057-2.576v-1.391C92.612,25.754,92.392,24.892,91.951,24.306z"/>
	<path fill="#FFFFFF" stroke="#FFFFFF" stroke-width="0.3" stroke-miterlimit="10" d="M97.578,31.682
		c0.16,0.183,0.35,0.354,0.57,0.513s0.471,0.292,0.752,0.399s0.582,0.16,0.901,0.16c0.289,0,0.566-0.046,0.832-0.137
		c0.266-0.091,0.501-0.22,0.707-0.388c0.205-0.167,0.368-0.38,0.49-0.639c0.121-0.258,0.182-0.555,0.182-0.889
		c0-0.471-0.133-0.832-0.399-1.083c-0.266-0.25-0.597-0.456-0.992-0.616c-0.396-0.159-0.829-0.3-1.3-0.421s-0.904-0.292-1.299-0.513
		c-0.396-0.22-0.726-0.513-0.992-0.878s-0.399-0.866-0.399-1.505c0-0.501,0.083-0.961,0.251-1.379
		c0.167-0.417,0.41-0.778,0.729-1.083c0.319-0.304,0.714-0.543,1.186-0.718s1.011-0.262,1.619-0.262
		c0.562,0,1.037,0.076,1.425,0.228s0.756,0.289,1.106,0.41c-0.122,0.228-0.236,0.509-0.342,0.844s-0.175,0.593-0.205,0.775h-0.273
		c-0.122-0.365-0.357-0.691-0.707-0.98c-0.35-0.288-0.783-0.433-1.3-0.433c-0.228,0-0.456,0.038-0.684,0.114
		s-0.434,0.19-0.616,0.342c-0.183,0.152-0.334,0.35-0.456,0.593c-0.122,0.244-0.183,0.532-0.183,0.867
		c0,0.486,0.133,0.863,0.399,1.128c0.266,0.266,0.596,0.475,0.992,0.627c0.395,0.152,0.828,0.285,1.299,0.399
		c0.471,0.114,0.904,0.274,1.3,0.479c0.395,0.205,0.726,0.49,0.992,0.855c0.266,0.365,0.399,0.866,0.399,1.505
		c0,0.441-0.095,0.874-0.285,1.299c-0.19,0.426-0.464,0.81-0.821,1.151c-0.357,0.342-0.787,0.608-1.289,0.798
		c-0.501,0.19-1.071,0.285-1.71,0.285c-0.699,0-1.285-0.068-1.755-0.205c-0.471-0.137-0.867-0.296-1.186-0.479
		c0.091-0.198,0.186-0.468,0.285-0.81c0.099-0.342,0.148-0.627,0.148-0.855h0.273C97.3,31.333,97.418,31.5,97.578,31.682z"/>
	<path fill="#FFFFFF" stroke="#FFFFFF" stroke-width="0.3" stroke-miterlimit="10" d="M105.489,27.418
		c-0.008-0.607-0.02-1.212-0.034-1.813c-0.016-0.6-0.034-1.174-0.057-1.721c-0.023-0.547-0.049-1.019-0.08-1.414
		c0.425,0.076,0.767,0.114,1.026,0.114c0.258,0,0.6-0.038,1.026-0.114c-0.061,0.395-0.106,0.775-0.137,1.14
		c-0.031,0.365-0.045,0.729-0.045,1.095h0.045c0.106-0.243,0.258-0.505,0.456-0.787c0.197-0.281,0.452-0.547,0.764-0.798
		c0.312-0.25,0.688-0.459,1.128-0.627c0.441-0.167,0.942-0.25,1.505-0.25c0.578,0,1.147,0.11,1.71,0.331s1.061,0.559,1.494,1.015
		c0.433,0.456,0.783,1.037,1.049,1.744c0.266,0.707,0.399,1.547,0.399,2.519c0,0.973-0.145,1.817-0.433,2.531
		c-0.289,0.714-0.665,1.307-1.129,1.778s-0.992,0.817-1.584,1.037s-1.186,0.331-1.778,0.331c-1.672,0-2.865-0.722-3.58-2.166h-0.045
		v1.437c0,0.486,0.003,1.03,0.011,1.63c0.007,0.6,0.019,1.196,0.034,1.79c0.015,0.592,0.034,1.158,0.057,1.698
		c0.022,0.54,0.049,0.999,0.08,1.38c-0.426-0.076-0.768-0.114-1.026-0.114c-0.259,0-0.601,0.038-1.026,0.114
		c0.03-0.381,0.057-0.84,0.08-1.38s0.042-1.106,0.057-1.698c0.015-0.594,0.026-1.19,0.034-1.79c0.007-0.601,0.011-1.144,0.011-1.63
		v-3.693C105.5,28.589,105.497,28.027,105.489,27.418z M113.446,25.572c-0.19-0.593-0.433-1.068-0.729-1.425
		s-0.635-0.604-1.015-0.741s-0.752-0.205-1.117-0.205c-0.608,0-1.128,0.129-1.562,0.388c-0.433,0.258-0.787,0.604-1.06,1.037
		s-0.471,0.943-0.593,1.528s-0.182,1.205-0.182,1.858c0,3.162,1.109,4.743,3.329,4.743c0.547,0,1.022-0.125,1.425-0.376
		c0.403-0.25,0.737-0.6,1.003-1.049c0.266-0.448,0.463-0.972,0.593-1.573c0.129-0.6,0.194-1.242,0.194-1.926
		C113.731,26.917,113.636,26.165,113.446,25.572z"/>
	<path fill="#FFFFFF" stroke="#FFFFFF" stroke-width="0.3" stroke-miterlimit="10" d="M120.093,22.517
		c0.577-0.183,1.17-0.273,1.778-0.273c0.547,0,1.049,0.08,1.507,0.239c0.456,0.16,0.847,0.388,1.17,0.684
		c0.324,0.296,0.578,0.654,0.762,1.071c0.186,0.418,0.277,0.878,0.277,1.379c0,0.867-0.015,1.729-0.045,2.588
		c-0.031,0.859-0.046,1.767-0.046,2.725c0,0.183,0.004,0.376,0.012,0.582c0.007,0.205,0.042,0.388,0.103,0.547
		c0.061,0.159,0.148,0.292,0.262,0.399c0.114,0.106,0.285,0.16,0.514,0.16c0.076,0,0.155-0.004,0.239-0.012
		c0.083-0.007,0.163-0.034,0.239-0.08v0.501c-0.168,0.076-0.377,0.137-0.627,0.183c-0.251,0.045-0.528,0.068-0.832,0.068
		c-0.494,0-0.871-0.125-1.134-0.376c-0.263-0.25-0.416-0.573-0.462-0.969c-0.546,0.547-1.084,0.95-1.614,1.208
		c-0.53,0.258-1.181,0.387-1.954,0.387c-0.379,0-0.75-0.053-1.113-0.16s-0.686-0.281-0.965-0.524
		c-0.281-0.243-0.508-0.536-0.682-0.878c-0.175-0.342-0.262-0.733-0.262-1.174c0-0.912,0.284-1.619,0.852-2.121
		c0.568-0.501,1.353-0.835,2.352-1.003c0.818-0.137,1.459-0.254,1.92-0.354c0.463-0.099,0.804-0.201,1.023-0.308
		c0.219-0.106,0.352-0.232,0.396-0.376c0.047-0.144,0.069-0.331,0.069-0.559c0-0.379-0.046-0.745-0.138-1.094
		c-0.09-0.35-0.235-0.653-0.433-0.912c-0.198-0.258-0.456-0.467-0.774-0.627c-0.32-0.16-0.707-0.239-1.164-0.239
		c-0.607,0-1.174,0.137-1.698,0.41c-0.524,0.274-0.915,0.654-1.174,1.14H118.2v-1.186C118.884,23.049,119.515,22.699,120.093,22.517
		z M122.936,27.852c-0.341,0.061-0.685,0.125-1.032,0.194s-0.692,0.156-1.033,0.262c-0.34,0.106-0.643,0.251-0.907,0.434
		c-0.265,0.182-0.476,0.41-0.636,0.684c-0.158,0.274-0.238,0.624-0.238,1.049c0,0.715,0.205,1.254,0.613,1.619
		c0.408,0.365,0.861,0.547,1.361,0.547c0.574,0,1.101-0.16,1.577-0.479c0.476-0.319,0.843-0.691,1.101-1.117l0.091-3.42
		C123.575,27.715,123.276,27.791,122.936,27.852z"/>
	<path fill="#FFFFFF" stroke="#FFFFFF" stroke-width="0.3" stroke-miterlimit="10" d="M135.559,24.306
		c-0.441-0.585-1.049-0.877-1.824-0.877c-1.064,0-1.844,0.327-2.337,0.98c-0.494,0.653-0.741,1.573-0.741,2.759v1.938
		c0,0.684,0.012,1.402,0.034,2.154s0.072,1.433,0.148,2.041c-0.351-0.03-0.692-0.045-1.026-0.045c-0.335,0-0.677,0.015-1.026,0.045
		c0.076-0.607,0.126-1.288,0.148-2.041c0.023-0.752,0.034-1.471,0.034-2.154v-2.372c0-0.684-0.011-1.402-0.034-2.154
		c-0.022-0.752-0.072-1.456-0.148-2.109c0.426,0.076,0.768,0.114,1.026,0.114c0.122,0,0.254-0.011,0.399-0.034
		c0.144-0.023,0.314-0.049,0.513-0.08c-0.046,0.608-0.068,1.216-0.068,1.824h0.046c0.427-0.653,0.938-1.159,1.532-1.516
		c0.594-0.357,1.303-0.536,2.127-0.536c0.427,0,0.857,0.061,1.292,0.182c0.435,0.122,0.827,0.331,1.178,0.627
		s0.637,0.699,0.857,1.208c0.222,0.509,0.332,1.159,0.332,1.949c0,0.654-0.016,1.327-0.046,2.018c-0.03,0.692-0.045,1.425-0.045,2.2
		v1.482c0,0.243,0.003,0.483,0.011,0.718c0.008,0.236,0.02,0.46,0.034,0.672c-0.308-0.03-0.63-0.045-0.969-0.045
		c-0.323,0-0.639,0.015-0.946,0.045c0.03-0.79,0.064-1.604,0.103-2.439s0.058-1.695,0.058-2.576v-1.391
		C136.22,25.754,135.999,24.892,135.559,24.306z"/>
	<path fill="#FFFFFF" stroke="#FFFFFF" stroke-width="0.3" stroke-miterlimit="10" d="M39.871,44.058
		c-0.043-1.098-0.091-2.217-0.143-3.357c0.777,0.035,1.551,0.064,2.32,0.091c0.769,0.026,1.542,0.039,2.32,0.039
		c0.777,0,1.563-0.013,2.358-0.039s1.659-0.056,2.592-0.091c-0.052,0.26-0.078,0.519-0.078,0.777c0,0.26,0.026,0.52,0.078,0.777
		c-0.467-0.051-1.028-0.099-1.685-0.143c-0.657-0.042-1.326-0.077-2.009-0.104c-0.683-0.025-1.339-0.047-1.97-0.064
		c-0.631-0.017-1.153-0.025-1.568-0.025c-0.017,0.604-0.03,1.184-0.039,1.736c-0.009,0.553-0.013,1.105-0.013,1.658
		c0,0.605,0.004,1.163,0.013,1.672c0.008,0.511,0.013,1.042,0.013,1.595c1.141,0,2.268-0.017,3.383-0.052
		c1.114-0.035,2.216-0.104,3.305-0.207c-0.069,0.259-0.104,0.518-0.104,0.777c0,0.259,0.034,0.518,0.104,0.777
		c-0.432-0.052-0.92-0.091-1.464-0.117c-0.544-0.025-1.111-0.047-1.698-0.064c-0.588-0.017-1.184-0.025-1.789-0.025
		c-0.605,0-1.184,0-1.737,0v2.203c0,1.141,0.021,2.264,0.065,3.369c0.043,1.106,0.091,2.195,0.143,3.266
		c-0.398-0.034-0.821-0.051-1.27-0.051c-0.45,0-0.873,0.017-1.27,0.051c0.052-1.07,0.099-2.159,0.143-3.266
		c0.042-1.105,0.064-2.229,0.064-3.369v-4.459C39.935,46.272,39.913,45.155,39.871,44.058z"/>
	<path fill="#FFFFFF" stroke="#FFFFFF" stroke-width="0.3" stroke-miterlimit="10" d="M52.076,44.511
		c-0.009-0.691-0.022-1.374-0.039-2.048s-0.039-1.317-0.064-1.931s-0.057-1.137-0.091-1.568c0.483,0.086,0.873,0.129,1.167,0.129
		c0.293,0,0.682-0.043,1.166-0.129c-0.035,0.432-0.064,0.955-0.09,1.568s-0.048,1.257-0.065,1.931
		c-0.018,0.674-0.03,1.356-0.039,2.048s-0.013,1.33-0.013,1.918v4.691c0,0.588,0.004,1.227,0.013,1.918s0.021,1.374,0.039,2.048
		c0.017,0.674,0.039,1.313,0.065,1.918s0.056,1.106,0.09,1.503c-0.397-0.034-0.786-0.051-1.166-0.051
		c-0.38,0-0.769,0.017-1.167,0.051c0.034-0.396,0.065-0.898,0.091-1.503s0.047-1.244,0.064-1.918s0.03-1.356,0.039-2.048
		c0.008-0.691,0.013-1.33,0.013-1.918v-4.691C52.089,45.841,52.084,45.202,52.076,44.511z"/>
	<path fill="#FFFFFF" stroke="#FFFFFF" stroke-width="0.3" stroke-miterlimit="10" d="M57.206,49.396
		c0.372-0.82,0.859-1.485,1.465-1.995c0.604-0.51,1.283-0.882,2.035-1.115c0.751-0.233,1.499-0.35,2.242-0.35
		c0.76,0,1.512,0.116,2.255,0.35c0.743,0.233,1.417,0.605,2.021,1.115s1.093,1.175,1.465,1.995c0.371,0.821,0.557,1.819,0.557,2.993
		c0,1.176-0.186,2.174-0.557,2.994c-0.372,0.821-0.86,1.486-1.465,1.996s-1.279,0.868-2.021,1.076
		c-0.743,0.207-1.495,0.311-2.255,0.311c-0.743,0-1.49-0.104-2.242-0.311c-0.752-0.208-1.43-0.566-2.035-1.076
		c-0.605-0.51-1.093-1.175-1.465-1.996c-0.372-0.82-0.557-1.818-0.557-2.994C56.648,51.216,56.834,50.218,57.206,49.396z
		 M59.124,54.489c0.13,0.674,0.35,1.275,0.661,1.802c0.311,0.527,0.726,0.946,1.244,1.257c0.519,0.312,1.158,0.467,1.918,0.467
		s1.4-0.155,1.918-0.467c0.518-0.311,0.933-0.729,1.244-1.257c0.311-0.526,0.531-1.128,0.661-1.802
		c0.13-0.674,0.194-1.373,0.194-2.1c0-0.725-0.064-1.425-0.194-2.1c-0.129-0.674-0.35-1.273-0.661-1.801s-0.726-0.945-1.244-1.257
		c-0.519-0.312-1.158-0.467-1.918-0.467s-1.399,0.155-1.918,0.467s-0.933,0.729-1.244,1.257s-0.531,1.127-0.661,1.801
		c-0.129,0.675-0.194,1.375-0.194,2.1C58.929,53.116,58.994,53.815,59.124,54.489z"/>
	<path fill="#FFFFFF" stroke="#FFFFFF" stroke-width="0.3" stroke-miterlimit="10" d="M71.228,49.396
		c0.372-0.82,0.859-1.485,1.465-1.995c0.604-0.51,1.283-0.882,2.035-1.115c0.751-0.233,1.499-0.35,2.242-0.35
		c0.76,0,1.512,0.116,2.255,0.35c0.743,0.233,1.417,0.605,2.021,1.115s1.093,1.175,1.465,1.995c0.371,0.821,0.557,1.819,0.557,2.993
		c0,1.176-0.186,2.174-0.557,2.994c-0.372,0.821-0.86,1.486-1.465,1.996s-1.279,0.868-2.021,1.076
		c-0.743,0.207-1.495,0.311-2.255,0.311c-0.743,0-1.49-0.104-2.242-0.311c-0.752-0.208-1.43-0.566-2.035-1.076
		c-0.605-0.51-1.093-1.175-1.465-1.996c-0.372-0.82-0.557-1.818-0.557-2.994C70.671,51.216,70.856,50.218,71.228,49.396z
		 M73.146,54.489c0.13,0.674,0.35,1.275,0.661,1.802c0.311,0.527,0.726,0.946,1.244,1.257c0.519,0.312,1.158,0.467,1.918,0.467
		s1.4-0.155,1.918-0.467c0.518-0.311,0.933-0.729,1.244-1.257c0.311-0.526,0.531-1.128,0.661-1.802
		c0.13-0.674,0.194-1.373,0.194-2.1c0-0.725-0.064-1.425-0.194-2.1c-0.129-0.674-0.35-1.273-0.661-1.801s-0.726-0.945-1.244-1.257
		c-0.519-0.312-1.158-0.467-1.918-0.467s-1.399,0.155-1.918,0.467s-0.933,0.729-1.244,1.257s-0.531,1.127-0.661,1.801
		c-0.129,0.675-0.194,1.375-0.194,2.1C72.952,53.116,73.017,53.815,73.146,54.489z"/>
	<path fill="#FFFFFF" stroke="#FFFFFF" stroke-width="0.3" stroke-miterlimit="10" d="M91.057,48.036
		c-0.251-0.087-0.506-0.13-0.765-0.13c-0.415,0-0.787,0.095-1.115,0.285c-0.329,0.19-0.605,0.444-0.83,0.765
		s-0.397,0.699-0.518,1.141c-0.121,0.44-0.182,0.911-0.182,1.412v2.852c0,1.158,0.004,2.043,0.013,2.656
		c0.008,0.613,0.039,1.111,0.09,1.49c-0.346-0.034-0.691-0.051-1.037-0.051c-0.38,0-0.743,0.017-1.089,0.051
		c0.052-0.587,0.082-1.387,0.091-2.396c0.009-1.012,0.013-2.251,0.013-3.721v-0.828c0-0.675-0.004-1.452-0.013-2.334
		c-0.009-0.881-0.039-1.892-0.091-3.032c0.19,0.035,0.372,0.065,0.544,0.091s0.354,0.039,0.544,0.039
		c0.155,0,0.319-0.014,0.493-0.039c0.172-0.025,0.354-0.056,0.544-0.091c-0.069,0.622-0.108,1.114-0.117,1.478
		s-0.013,0.709-0.013,1.037l0.052,0.025c1.02-1.866,2.16-2.799,3.421-2.799c0.156,0,0.289,0.009,0.402,0.025
		c0.112,0.018,0.255,0.061,0.428,0.13c-0.087,0.208-0.139,0.522-0.156,0.946s-0.026,0.808-0.026,1.153l-0.181,0.13
		C91.476,48.218,91.307,48.122,91.057,48.036z"/>
	<path fill="#FFFFFF" stroke="#FFFFFF" stroke-width="0.3" stroke-miterlimit="10" d="M97.023,42.722
		c-0.052,0.657-0.091,1.301-0.117,1.932s-0.056,1.266-0.091,1.904c0.19,0,0.544-0.004,1.063-0.012
		c0.519-0.01,1.08-0.031,1.685-0.065c-0.017,0.052-0.026,0.147-0.026,0.285v0.259v0.285c0,0.121,0.009,0.207,0.026,0.26
		c-0.225-0.018-0.458-0.03-0.7-0.039c-0.242-0.008-0.501-0.014-0.777-0.014h-1.271c-0.017,0.07-0.039,0.347-0.064,0.83
		c-0.026,0.484-0.048,1.059-0.065,1.724c-0.018,0.665-0.03,1.36-0.039,2.087c-0.009,0.726-0.013,1.373-0.013,1.943
		c0,0.484,0.013,0.959,0.039,1.426c0.026,0.467,0.108,0.886,0.247,1.258c0.138,0.371,0.345,0.67,0.622,0.894
		c0.276,0.226,0.674,0.337,1.192,0.337c0.138,0,0.324-0.017,0.557-0.052c0.233-0.034,0.436-0.077,0.609-0.13v0.623
		c-0.294,0.051-0.618,0.116-0.972,0.193c-0.354,0.078-0.696,0.117-1.024,0.117c-1.089,0-1.892-0.268-2.411-0.804
		c-0.519-0.535-0.777-1.321-0.777-2.358c0-0.467,0.008-0.973,0.026-1.517c0.017-0.544,0.039-1.14,0.064-1.788
		s0.047-1.365,0.065-2.151c0.017-0.786,0.026-1.663,0.026-2.632h-0.83c-0.138,0-0.285,0.006-0.44,0.014
		c-0.155,0.009-0.32,0.021-0.493,0.039c0.017-0.104,0.03-0.203,0.039-0.299c0.008-0.094,0.013-0.193,0.013-0.297
		c0-0.087-0.005-0.174-0.013-0.26c-0.009-0.086-0.022-0.172-0.039-0.26c0.778,0.053,1.348,0.078,1.711,0.078
		c-0.018-0.346-0.03-0.777-0.039-1.296s-0.03-1.054-0.064-1.606l2.151-0.908H97.023z"/>
	<path fill="#FFFFFF" stroke="#FFFFFF" stroke-width="0.3" stroke-miterlimit="10" d="M102.156,40.753
		c0.259-0.26,0.57-0.39,0.933-0.39s0.674,0.13,0.933,0.39c0.259,0.258,0.389,0.569,0.389,0.933c0,0.362-0.129,0.674-0.389,0.933
		c-0.259,0.26-0.57,0.389-0.933,0.389s-0.674-0.129-0.933-0.389c-0.259-0.259-0.389-0.57-0.389-0.933
		C101.767,41.322,101.896,41.011,102.156,40.753z M102.091,48.593c-0.026-0.855-0.082-1.654-0.168-2.397
		c0.483,0.087,0.873,0.13,1.167,0.13c0.293,0,0.682-0.043,1.166-0.13c-0.086,0.743-0.142,1.542-0.168,2.397
		c-0.026,0.855-0.039,1.672-0.039,2.449v2.696c0,0.777,0.013,1.594,0.039,2.449c0.026,0.855,0.082,1.629,0.168,2.319
		c-0.397-0.034-0.786-0.051-1.166-0.051c-0.38,0-0.769,0.017-1.167,0.051c0.086-0.69,0.143-1.464,0.168-2.319
		s0.039-1.672,0.039-2.449v-2.696C102.13,50.265,102.117,49.448,102.091,48.593z"/>
	<path fill="#FFFFFF" stroke="#FFFFFF" stroke-width="0.3" stroke-miterlimit="10" d="M107.742,48.593
		c-0.026-0.855-0.082-1.654-0.168-2.397c0.483,0.087,0.873,0.13,1.167,0.13c0.138,0,0.289-0.014,0.454-0.039
		c0.164-0.025,0.358-0.056,0.583-0.091c-0.052,0.691-0.078,1.383-0.078,2.073h0.052c0.913-1.555,2.196-2.332,3.85-2.332
		c0.43,0,0.853,0.064,1.266,0.193c0.413,0.131,0.788,0.308,1.124,0.532c0.336,0.225,0.624,0.497,0.866,0.816
		c0.24,0.319,0.404,0.661,0.49,1.024h0.053c0.416-0.83,0.982-1.465,1.702-1.906c0.72-0.439,1.547-0.66,2.482-0.66
		c0.572,0,1.101,0.078,1.586,0.232c0.485,0.156,0.905,0.398,1.261,0.727s0.633,0.752,0.832,1.27
		c0.199,0.519,0.299,1.141,0.299,1.867c0,0.293-0.009,0.613-0.025,0.959c-0.018,0.346-0.035,0.747-0.053,1.205
		c-0.018,0.457-0.034,0.977-0.051,1.555c-0.018,0.579-0.026,1.248-0.026,2.009c0,0.467,0.004,0.916,0.013,1.349
		c0.009,0.432,0.03,0.898,0.064,1.398c-0.189-0.034-0.38-0.051-0.57-0.051c-0.189,0-0.371,0-0.544,0c-0.19,0-0.38,0-0.569,0
		c-0.191,0-0.381,0.017-0.57,0.051c0.051-0.432,0.107-1.304,0.168-2.617c0.061-1.313,0.091-3.145,0.091-5.495
		c0-0.432-0.048-0.838-0.144-1.218c-0.096-0.381-0.248-0.709-0.455-0.985c-0.209-0.276-0.486-0.497-0.834-0.661
		c-0.347-0.164-0.78-0.246-1.301-0.246c-0.625,0-1.154,0.121-1.588,0.363c-0.435,0.242-0.772,0.527-1.016,0.855
		c-0.139,0.189-0.248,0.38-0.326,0.57c-0.078,0.189-0.139,0.479-0.182,0.867s-0.074,0.934-0.092,1.633
		c-0.017,0.7-0.025,1.664-0.025,2.891c0,0.743,0.014,1.422,0.039,2.035s0.056,1.283,0.091,2.008
		c-0.394-0.034-0.769-0.051-1.128-0.051c-0.358,0-0.734,0.017-1.127,0.051c0.077-0.949,0.13-1.918,0.161-2.902
		s0.046-1.953,0.046-2.903c0-0.812-0.004-1.446-0.013-1.905c-0.009-0.457-0.03-0.82-0.064-1.088
		c-0.035-0.268-0.082-0.488-0.142-0.662c-0.06-0.172-0.142-0.362-0.245-0.569c-0.19-0.328-0.487-0.609-0.891-0.843
		c-0.404-0.232-0.821-0.35-1.251-0.35c-1.136,0-1.97,0.371-2.503,1.114s-0.8,1.788-0.8,3.137v2.203c0,0.777,0.013,1.594,0.039,2.449
		c0.026,0.855,0.082,1.629,0.168,2.319c-0.397-0.034-0.786-0.051-1.166-0.051c-0.38,0-0.769,0.017-1.167,0.051
		c0.086-0.69,0.143-1.464,0.168-2.319s0.039-1.672,0.039-2.449v-2.696C107.781,50.265,107.768,49.448,107.742,48.593z"/>
	<path fill="#FFFFFF" stroke="#FFFFFF" stroke-width="0.3" stroke-miterlimit="10" d="M128.918,47.751
		c1.011-1.209,2.483-1.814,4.419-1.814c0.916,0,1.707,0.143,2.373,0.428c0.664,0.285,1.221,0.665,1.672,1.141
		c0.449,0.475,0.781,1.032,0.998,1.672c0.215,0.639,0.322,1.321,0.322,2.047c0,0.174-0.004,0.342-0.012,0.506
		c-0.01,0.164-0.021,0.332-0.039,0.506c-0.934-0.018-1.857-0.035-2.773-0.053c-0.916-0.017-1.84-0.025-2.773-0.025
		c-0.57,0-1.137,0.009-1.697,0.025c-0.563,0.018-1.129,0.035-1.699,0.053c-0.018,0.086-0.025,0.216-0.025,0.389v0.336
		c0,0.674,0.1,1.306,0.299,1.893c0.197,0.588,0.488,1.094,0.867,1.517c0.381,0.423,0.848,0.761,1.4,1.011s1.191,0.376,1.918,0.376
		c0.346,0,0.699-0.048,1.063-0.143s0.717-0.225,1.063-0.389s0.67-0.358,0.973-0.583s0.566-0.467,0.791-0.727l0.129,0.078
		l-0.156,1.27c-0.518,0.415-1.162,0.77-1.93,1.063c-0.77,0.294-1.568,0.44-2.398,0.44c-0.934,0-1.785-0.143-2.553-0.428
		c-0.77-0.285-1.436-0.699-1.996-1.244c-0.562-0.545-0.994-1.188-1.296-1.932c-0.303-0.742-0.454-1.545-0.454-2.41
		C127.401,50.628,127.907,48.96,128.918,47.751z M131.769,47.206c-0.439,0.295-0.803,0.661-1.088,1.102
		c-0.285,0.441-0.502,0.925-0.648,1.451c-0.146,0.527-0.236,1.024-0.271,1.491c0.535,0.017,1.092,0.034,1.672,0.052
		c0.578,0.018,1.145,0.025,1.697,0.025c0.57,0,1.148-0.008,1.736-0.025s1.158-0.035,1.711-0.052c0-0.467-0.039-0.96-0.117-1.478
		c-0.076-0.519-0.232-1.002-0.465-1.451c-0.234-0.449-0.559-0.82-0.973-1.115c-0.414-0.293-0.959-0.44-1.633-0.44
		C132.749,46.766,132.21,46.913,131.769,47.206z"/>
	<path fill="#FFFFFF" d="M156.558,58.494c-0.18-0.026-0.35-0.038-0.509-0.038c-0.161,0-0.33,0-0.51,0c-0.179,0-0.349,0-0.509,0
		s-0.329,0.012-0.509,0.038c-0.089-0.294-0.211-0.649-0.364-1.065s-0.323-0.852-0.509-1.307c-0.186-0.453-0.374-0.914-0.566-1.382
		c-0.192-0.467-0.371-0.912-0.538-1.335c-0.409-0.012-0.825-0.021-1.248-0.028c-0.422-0.006-0.845-0.009-1.267-0.009
		c-0.397,0-0.787,0.003-1.171,0.009c-0.385,0.007-0.775,0.017-1.172,0.028c-0.409,0.999-0.78,1.949-1.113,2.852
		s-0.583,1.648-0.749,2.237c-0.218-0.026-0.454-0.038-0.71-0.038c-0.257,0-0.493,0.012-0.711,0.038
		c1.037-2.239,2.048-4.468,3.034-6.682c0.985-2.214,1.978-4.468,2.976-6.759h0.365c0.307,0.742,0.64,1.546,0.998,2.41
		c0.358,0.863,0.723,1.737,1.095,2.621c0.371,0.883,0.742,1.76,1.113,2.63s0.72,1.68,1.046,2.429
		c0.327,0.749,0.621,1.418,0.884,2.006C156.176,57.739,156.391,58.187,156.558,58.494z M148.052,52.522
		c0.332,0,0.678,0.007,1.036,0.02s0.704,0.02,1.037,0.02c0.358,0,0.717-0.004,1.075-0.01s0.717-0.016,1.075-0.029l-2.131-4.877
		L148.052,52.522z"/>
	<path fill="#FFFFFF" d="M157.955,53.54c-0.007-0.512-0.016-1.021-0.028-1.525c-0.014-0.506-0.029-0.989-0.049-1.45
		c-0.019-0.461-0.041-0.857-0.066-1.19c0.357,0.064,0.646,0.096,0.863,0.096s0.506-0.031,0.864-0.096
		c-0.051,0.333-0.09,0.652-0.115,0.96s-0.038,0.614-0.038,0.921h0.038c0.09-0.204,0.218-0.425,0.384-0.662
		c0.167-0.236,0.381-0.461,0.644-0.672s0.579-0.387,0.95-0.527s0.794-0.211,1.268-0.211c0.486,0,0.966,0.092,1.439,0.277
		s0.894,0.471,1.258,0.855c0.365,0.383,0.659,0.873,0.884,1.469c0.224,0.595,0.336,1.302,0.336,2.121s-0.122,1.529-0.365,2.131
		s-0.56,1.102-0.95,1.498s-0.835,0.688-1.335,0.873c-0.499,0.186-0.998,0.279-1.497,0.279c-1.408,0-2.413-0.608-3.015-1.824h-0.038
		v1.209c0,0.41,0.003,0.867,0.01,1.373c0.006,0.506,0.016,1.008,0.028,1.508c0.013,0.498,0.029,0.975,0.048,1.43
		c0.02,0.454,0.042,0.842,0.067,1.162c-0.358-0.064-0.646-0.096-0.864-0.096s-0.506,0.031-0.863,0.096
		c0.025-0.32,0.048-0.708,0.066-1.162c0.02-0.455,0.035-0.932,0.049-1.43c0.013-0.5,0.021-1.002,0.028-1.508s0.01-0.963,0.01-1.373
		v-3.11C157.965,54.526,157.962,54.052,157.955,53.54z M164.656,51.985c-0.16-0.5-0.365-0.899-0.614-1.2
		c-0.25-0.301-0.535-0.509-0.854-0.624c-0.32-0.115-0.634-0.173-0.941-0.173c-0.512,0-0.95,0.108-1.314,0.327
		c-0.365,0.217-0.663,0.508-0.894,0.873s-0.396,0.793-0.499,1.286s-0.153,1.015-0.153,1.565c0,2.662,0.934,3.993,2.803,3.993
		c0.461,0,0.861-0.105,1.2-0.317c0.339-0.211,0.621-0.505,0.845-0.883c0.224-0.377,0.391-0.818,0.499-1.324
		c0.109-0.506,0.164-1.047,0.164-1.623C164.896,53.118,164.815,52.484,164.656,51.985z"/>
	<path fill="#FFFFFF" d="M168.342,53.54c-0.007-0.512-0.016-1.021-0.028-1.525c-0.014-0.506-0.029-0.989-0.049-1.45
		c-0.019-0.461-0.041-0.857-0.066-1.19c0.357,0.064,0.646,0.096,0.863,0.096s0.506-0.031,0.864-0.096
		c-0.051,0.333-0.09,0.652-0.115,0.96s-0.038,0.614-0.038,0.921h0.038c0.09-0.204,0.218-0.425,0.384-0.662
		c0.167-0.236,0.381-0.461,0.644-0.672s0.579-0.387,0.95-0.527s0.794-0.211,1.268-0.211c0.486,0,0.966,0.092,1.439,0.277
		s0.894,0.471,1.258,0.855c0.365,0.383,0.659,0.873,0.884,1.469c0.224,0.595,0.336,1.302,0.336,2.121s-0.122,1.529-0.365,2.131
		s-0.56,1.102-0.95,1.498s-0.835,0.688-1.335,0.873c-0.499,0.186-0.998,0.279-1.497,0.279c-1.408,0-2.413-0.608-3.015-1.824h-0.038
		v1.209c0,0.41,0.003,0.867,0.01,1.373c0.006,0.506,0.016,1.008,0.028,1.508c0.013,0.498,0.029,0.975,0.048,1.43
		c0.02,0.454,0.042,0.842,0.067,1.162c-0.358-0.064-0.646-0.096-0.864-0.096s-0.506,0.031-0.863,0.096
		c0.025-0.32,0.048-0.708,0.066-1.162c0.02-0.455,0.035-0.932,0.049-1.43c0.013-0.5,0.021-1.002,0.028-1.508s0.01-0.963,0.01-1.373
		v-3.11C168.352,54.526,168.349,54.052,168.342,53.54z M175.043,51.985c-0.16-0.5-0.365-0.899-0.614-1.2
		c-0.25-0.301-0.535-0.509-0.854-0.624c-0.32-0.115-0.634-0.173-0.941-0.173c-0.512,0-0.95,0.108-1.314,0.327
		c-0.365,0.217-0.663,0.508-0.894,0.873s-0.396,0.793-0.499,1.286s-0.153,1.015-0.153,1.565c0,2.662,0.934,3.993,2.803,3.993
		c0.461,0,0.861-0.105,1.2-0.317c0.339-0.211,0.621-0.505,0.845-0.883c0.224-0.377,0.391-0.818,0.499-1.324
		c0.109-0.506,0.164-1.047,0.164-1.623C175.283,53.118,175.202,52.484,175.043,51.985z"/>
	<path fill="#FFFFFF" d="M182.838,50.737c-0.186-0.064-0.374-0.096-0.566-0.096c-0.307,0-0.582,0.07-0.825,0.211
		s-0.448,0.33-0.614,0.566c-0.167,0.236-0.295,0.518-0.385,0.845c-0.089,0.326-0.134,0.675-0.134,1.046v2.112
		c0,0.858,0.003,1.514,0.01,1.968c0.006,0.455,0.028,0.822,0.066,1.104c-0.256-0.026-0.512-0.038-0.768-0.038
		c-0.281,0-0.551,0.012-0.807,0.038c0.039-0.435,0.061-1.027,0.067-1.776c0.006-0.748,0.01-1.667,0.01-2.755v-0.614
		c0-0.5-0.004-1.076-0.01-1.729c-0.007-0.652-0.028-1.401-0.067-2.246c0.141,0.025,0.275,0.048,0.403,0.067
		c0.128,0.019,0.263,0.028,0.403,0.028c0.115,0,0.236-0.01,0.365-0.028c0.127-0.02,0.262-0.042,0.402-0.067
		c-0.051,0.461-0.08,0.826-0.086,1.094c-0.007,0.27-0.01,0.525-0.01,0.769l0.038,0.019c0.756-1.382,1.601-2.072,2.535-2.072
		c0.115,0,0.214,0.006,0.297,0.019s0.189,0.045,0.317,0.097c-0.064,0.152-0.103,0.387-0.115,0.7s-0.02,0.599-0.02,0.854
		l-0.134,0.096C183.148,50.872,183.023,50.802,182.838,50.737z"/>
	<path fill="#FFFFFF" d="M184.485,51.745c0.275-0.607,0.637-1.101,1.085-1.479c0.447-0.377,0.95-0.652,1.507-0.825
		s1.11-0.259,1.661-0.259c0.563,0,1.119,0.086,1.67,0.259s1.05,0.448,1.498,0.825c0.447,0.378,0.81,0.871,1.085,1.479
		c0.274,0.607,0.412,1.348,0.412,2.218s-0.138,1.61-0.412,2.218c-0.275,0.607-0.638,1.101-1.085,1.479
		c-0.448,0.377-0.947,0.643-1.498,0.797c-0.551,0.153-1.107,0.23-1.67,0.23c-0.551,0-1.104-0.077-1.661-0.23
		c-0.557-0.154-1.06-0.42-1.507-0.797c-0.448-0.378-0.81-0.871-1.085-1.479s-0.413-1.348-0.413-2.218S184.21,52.353,184.485,51.745z
		 M185.906,55.519c0.096,0.498,0.259,0.943,0.489,1.334s0.538,0.701,0.922,0.932s0.857,0.346,1.421,0.346
		c0.563,0,1.036-0.115,1.421-0.346c0.384-0.23,0.69-0.541,0.921-0.932s0.394-0.836,0.49-1.334c0.096-0.5,0.144-1.018,0.144-1.556
		s-0.048-1.056-0.144-1.556c-0.097-0.499-0.26-0.943-0.49-1.334s-0.537-0.701-0.921-0.932c-0.385-0.23-0.858-0.346-1.421-0.346
		c-0.563,0-1.037,0.115-1.421,0.346s-0.691,0.541-0.922,0.932s-0.394,0.835-0.489,1.334c-0.097,0.5-0.145,1.018-0.145,1.556
		S185.81,55.019,185.906,55.519z"/>
	<path fill="#FFFFFF" d="M197,49.413c0.486-0.154,0.985-0.23,1.498-0.23c0.46,0,0.883,0.066,1.268,0.201s0.714,0.326,0.986,0.576
		c0.272,0.249,0.486,0.551,0.642,0.902s0.233,0.738,0.233,1.161c0,0.729-0.013,1.456-0.038,2.179
		c-0.025,0.725-0.038,1.488-0.038,2.295c0,0.154,0.003,0.316,0.009,0.49c0.007,0.172,0.035,0.326,0.087,0.461
		c0.051,0.134,0.125,0.246,0.221,0.336c0.096,0.089,0.24,0.134,0.432,0.134c0.064,0,0.132-0.003,0.202-0.01s0.138-0.028,0.201-0.067
		v0.423c-0.141,0.063-0.316,0.115-0.527,0.153c-0.212,0.039-0.445,0.058-0.701,0.058c-0.416,0-0.733-0.105-0.955-0.316
		c-0.221-0.212-0.35-0.483-0.389-0.816c-0.46,0.461-0.912,0.8-1.359,1.018c-0.446,0.218-0.994,0.327-1.645,0.327
		c-0.319,0-0.632-0.045-0.938-0.135c-0.306-0.09-0.577-0.236-0.813-0.441c-0.236-0.205-0.428-0.451-0.574-0.74
		c-0.146-0.287-0.22-0.617-0.22-0.988c0-0.768,0.239-1.363,0.718-1.785c0.478-0.423,1.138-0.704,1.979-0.846
		c0.689-0.115,1.228-0.213,1.617-0.297c0.389-0.083,0.676-0.17,0.861-0.26c0.185-0.089,0.296-0.194,0.334-0.316
		c0.039-0.121,0.058-0.278,0.058-0.471c0-0.319-0.038-0.627-0.115-0.922c-0.076-0.293-0.198-0.55-0.364-0.768
		c-0.167-0.217-0.384-0.394-0.653-0.527c-0.269-0.135-0.595-0.202-0.979-0.202c-0.513,0-0.989,0.115-1.431,0.346
		s-0.771,0.55-0.989,0.96h-0.211v-0.998C195.982,49.86,196.514,49.565,197,49.413z M199.394,53.905
		c-0.286,0.051-0.576,0.105-0.869,0.163s-0.583,0.132-0.869,0.221c-0.287,0.09-0.542,0.212-0.765,0.364
		c-0.223,0.154-0.401,0.346-0.535,0.576s-0.2,0.525-0.2,0.884c0,0.602,0.172,1.056,0.516,1.363s0.726,0.46,1.146,0.46
		c0.484,0,0.927-0.134,1.328-0.402c0.401-0.27,0.71-0.582,0.927-0.941l0.076-2.879C199.933,53.79,199.681,53.854,199.394,53.905z"/>
	<path fill="#FFFFFF" d="M204.02,51.813c0.281-0.602,0.649-1.098,1.104-1.488c0.454-0.39,0.976-0.679,1.564-0.864
		s1.19-0.277,1.805-0.277c0.704,0,1.335,0.086,1.892,0.259s0.957,0.368,1.2,0.585c-0.09,0.192-0.17,0.395-0.24,0.605
		s-0.132,0.432-0.183,0.662h-0.153c-0.09-0.166-0.211-0.336-0.365-0.509c-0.153-0.173-0.336-0.333-0.547-0.479
		c-0.211-0.147-0.445-0.27-0.701-0.365s-0.537-0.145-0.845-0.145c-0.576,0-1.072,0.105-1.487,0.317
		c-0.417,0.211-0.756,0.503-1.018,0.874c-0.263,0.371-0.455,0.809-0.576,1.314c-0.122,0.506-0.183,1.053-0.183,1.642
		c0,1.319,0.281,2.313,0.845,2.985s1.389,1.008,2.477,1.008c0.256,0,0.519-0.035,0.787-0.105c0.27-0.07,0.531-0.166,0.787-0.287
		c0.256-0.122,0.496-0.266,0.721-0.433c0.224-0.166,0.419-0.345,0.585-0.538l0.097,0.059c-0.064,0.307-0.103,0.621-0.115,0.94
		c-0.385,0.308-0.861,0.569-1.431,0.787s-1.162,0.327-1.776,0.327c-0.55,0-1.104-0.08-1.66-0.24s-1.06-0.43-1.508-0.807
		s-0.81-0.867-1.085-1.469s-0.412-1.338-0.412-2.208C203.598,53.131,203.738,52.414,204.02,51.813z"/>
	<path fill="#FFFFFF" d="M213.362,48.126c-0.007-0.512-0.017-1.018-0.029-1.517s-0.028-0.976-0.048-1.431
		c-0.02-0.454-0.042-0.842-0.067-1.162c0.358,0.064,0.646,0.097,0.864,0.097s0.506-0.032,0.864-0.097
		c-0.026,0.32-0.048,0.705-0.067,1.152c-0.02,0.448-0.035,0.919-0.048,1.412c-0.013,0.492-0.022,0.988-0.029,1.487
		s-0.01,0.96-0.01,1.382v1.46h0.039c0.359-0.55,0.789-0.976,1.29-1.276s1.098-0.451,1.791-0.451c0.359,0,0.723,0.051,1.089,0.152
		c0.365,0.104,0.696,0.279,0.991,0.529c0.295,0.249,0.536,0.588,0.723,1.018c0.186,0.428,0.279,0.976,0.279,1.641
		c0,0.551-0.013,1.117-0.038,1.699c-0.026,0.583-0.039,1.2-0.039,1.854v1.248c0,0.205,0.003,0.406,0.01,0.604
		c0.006,0.198,0.016,0.388,0.029,0.566c-0.26-0.026-0.531-0.038-0.816-0.038c-0.272,0-0.538,0.012-0.797,0.038
		c0.025-0.665,0.055-1.351,0.086-2.055c0.032-0.704,0.049-1.427,0.049-2.169v-1.172c0-0.96-0.187-1.686-0.558-2.18
		c-0.371-0.492-0.883-0.738-1.535-0.738c-0.896,0-1.553,0.275-1.969,0.825c-0.416,0.551-0.624,1.325-0.624,2.323
		c0,0.358,0.003,0.775,0.01,1.248c0.007,0.474,0.017,0.95,0.029,1.43c0.013,0.48,0.028,0.945,0.048,1.393
		c0.02,0.448,0.041,0.813,0.067,1.095c-0.295-0.026-0.583-0.038-0.864-0.038c-0.282,0-0.569,0.012-0.864,0.038
		c0.025-0.294,0.048-0.665,0.067-1.114c0.02-0.447,0.035-0.921,0.048-1.42c0.013-0.5,0.022-1.005,0.029-1.518
		c0.006-0.512,0.01-0.985,0.01-1.42v-3.476C213.372,49.112,213.368,48.638,213.362,48.126z"/>
	<path fill="#FFFFFF" d="M222.921,47.608c-0.131,0.006-0.261,0.014-0.39,0.021c0.02-0.049,0.03-0.086,0.03-0.115
		c0-0.023-0.011-0.061-0.03-0.108c0.157,0.009,0.313,0.015,0.468,0.021c0.155,0.006,0.312,0.009,0.469,0.009
		s0.313-0.003,0.469-0.009c0.155-0.007,0.312-0.013,0.468-0.021c-0.02,0.048-0.029,0.085-0.029,0.108
		c0,0.029,0.01,0.066,0.029,0.115c-0.129-0.008-0.259-0.016-0.39-0.021s-0.261-0.009-0.39-0.009v0.853
		c0,0.242,0.003,0.48,0.009,0.717c0.006,0.235,0.014,0.475,0.021,0.716c-0.072-0.021-0.135-0.03-0.188-0.03s-0.115,0.01-0.188,0.03
		c0.008-0.161,0.016-0.351,0.021-0.568s0.009-0.489,0.009-0.815V47.6C223.182,47.6,223.052,47.603,222.921,47.608z M226.665,48.071
		c0.129-0.234,0.256-0.467,0.381-0.701h0.049l0.072,0.768c0.013,0.137,0.027,0.282,0.046,0.436c0.018,0.152,0.037,0.307,0.057,0.462
		c0.021,0.155,0.041,0.306,0.061,0.45c0.021,0.146,0.04,0.278,0.061,0.399c-0.068-0.021-0.125-0.03-0.169-0.03
		c-0.032,0-0.062,0.003-0.088,0.009c-0.026,0.007-0.056,0.013-0.088,0.021c-0.008-0.169-0.017-0.352-0.027-0.548
		c-0.01-0.195-0.031-0.414-0.063-0.655l-0.084-0.653h-0.013l-0.254,0.46c-0.064,0.112-0.131,0.233-0.199,0.36
		s-0.133,0.25-0.193,0.371s-0.116,0.236-0.166,0.345c-0.051,0.108-0.092,0.201-0.124,0.278h-0.048
		c-0.089-0.206-0.189-0.41-0.303-0.613c-0.113-0.204-0.224-0.41-0.332-0.62l-0.29-0.55h-0.013l-0.078,0.67
		c-0.024,0.193-0.044,0.387-0.058,0.578c-0.015,0.191-0.023,0.384-0.027,0.577c-0.061-0.021-0.106-0.03-0.139-0.03
		c-0.036,0-0.085,0.01-0.146,0.03c0.053-0.246,0.1-0.509,0.143-0.789c0.042-0.28,0.083-0.565,0.123-0.854l0.115-0.871h0.061
		c0.104,0.229,0.217,0.457,0.335,0.684c0.119,0.225,0.245,0.459,0.378,0.701l0.314,0.556h0.013l0.308-0.544
		C226.407,48.536,226.536,48.306,226.665,48.071z"/>
</g>
</svg>
